ffmpeg started on 2025-06-06 at 15:47:42
Report written to "D:\Convert\FFMetrics\reports\psnr_report-6.txt"
Log level: 32
Command line:
ffmpeg -hide_banner -nostdin -i "G:\\\xc0\xed\xe8\xec\xe5\\\xce\xed\xe3\xee\xe8\xed\xe3\xe8\\!_36_\xce\xf1\xe5\xed\xfc_2024\\DreamCast\\\xcf\xe5\xf0\xe5\xf0\xee\xe6\xe4\xe5\xed\xe8\xe5 \xe2 \xe0\xf0\xe8\xf1\xf2\xee\xea\xf0\xe0\xf2\xe0 \xf1\xee \xf1\xef\xee\xf1\xee\xe1\xed\xee\xf1\xf2\xfc\xfe \xe0\xed\xe0\xeb\xe8\xe7\xe0\\\xd2\xc2-1\\[DC] Tensei Kizoku - Kantei Skill de Nariagaru - 05_Telegram_HEVC.mkv" -i "G:\\\xc0\xed\xe8\xec\xe5\\\xce\xed\xe3\xee\xe8\xed\xe3\xe8\\!_36_\xce\xf1\xe5\xed\xfc_2024\\DreamCast\\\xcf\xe5\xf0\xe5\xf0\xee\xe6\xe4\xe5\xed\xe8\xe5 \xe2 \xe0\xf0\xe8\xf1\xf2\xee\xea\xf0\xe0\xf2\xe0 \xf1\xee \xf1\xef\xee\xf1\xee\xe1\xed\xee\xf1\xf2\xfc\xfe \xe0\xed\xe0\xeb\xe8\xe7\xe0\\\xd2\xc2-1\\[DC] Tensei Kizoku - Kantei Skill de Nariagaru - 05_Telegram.mp4" -lavfi "[0:v]settb=AVTB,setpts=PTS-STARTPTS,format=pix_fmts=yuv420p10,fps=24000/1001,scale=1920:1080:flags=bicubic[main];[1:v]settb=AVTB,setpts=PTS-STARTPTS,format=pix_fmts=yuv420p,fps=24000/1001,scale=1920:1080:flags=bicubic[ref];[main][ref]psnr=eof_action=endall:stats_file='D\\:/Convert/FFMetrics/logs/psnr_logfile-6.txt'" -f null -
Input #0, matroska,webm, from 'G:\Аниме\Онгоинги\!_36_Осень_2024\DreamCast\Перерождение в аристократа со способностью анализа\ТВ-1\[DC] Tensei Kizoku - Kantei Skill de Nariagaru - 05_Telegram_HEVC.mkv':
  Metadata:
    COMPATIBLE_BRANDS: isomiso2avc1mp41
    MAJOR_BRAND     : isom
    MINOR_VERSION   : 512
    ENCODER         : Lavf61.7.100
  Duration: 00:23:48.23, start: -0.021000, bitrate: 1045 kb/s
  Stream #0:0: Video: hevc (Main 10), yuv420p10le(tv, bt709, progressive), 1920x1080 [SAR 1:1 DAR 16:9], 23.98 fps, 23.98 tbr, 1k tbn (default)
      Metadata:
        HANDLER_NAME    : VideoHandler
        VENDOR_ID       : [0][0][0][0]
        ENCODER         : Lavc61.19.100 libx265
        BPS             : 848522
        DURATION        : 00:23:46.549708333
        NUMBER_OF_FRAMES: 34203
        NUMBER_OF_BYTES : 151307330
        _STATISTICS_WRITING_APP: mkvpropedit v66.0.0 ('Josie') 64-bit
        _STATISTICS_WRITING_DATE_UTC: 2025-06-02 07:29:08
        _STATISTICS_TAGS: BPS DURATION NUMBER_OF_FRAMES NUMBER_OF_BYTES
  Stream #0:1: Audio: aac (LC), 48000 Hz, stereo, fltp (default)
      Metadata:
        HANDLER_NAME    : SoundHandler
        VENDOR_ID       : [0][0][0][0]
        ENCODER         : Lavc61.19.100 aac
        BPS             : 193429
        DURATION        : 00:23:48.224000000
        NUMBER_OF_FRAMES: 66949
        NUMBER_OF_BYTES : 34532592
        _STATISTICS_WRITING_APP: mkvpropedit v66.0.0 ('Josie') 64-bit
        _STATISTICS_WRITING_DATE_UTC: 2025-06-02 07:29:08
        _STATISTICS_TAGS: BPS DURATION NUMBER_OF_FRAMES NUMBER_OF_BYTES
Input #1, mov,mp4,m4a,3gp,3g2,mj2, from 'G:\Аниме\Онгоинги\!_36_Осень_2024\DreamCast\Перерождение в аристократа со способностью анализа\ТВ-1\[DC] Tensei Kizoku - Kantei Skill de Nariagaru - 05_Telegram.mp4':
  Metadata:
    major_brand     : isom
    minor_version   : 512
    compatible_brands: isomiso2avc1mp41
    encoder         : Lavf60.16.100
  Duration: 00:23:48.18, start: 0.000000, bitrate: 3707 kb/s
  Stream #1:0[0x1](und): Video: h264 (High) (avc1 / 0x31637661), yuv420p(tv, bt709, progressive), 1920x1080 [SAR 1:1 DAR 16:9], 3563 kb/s, 23.98 fps, 23.98 tbr, 24k tbn (default)
      Metadata:
        handler_name    : VideoHandler
        vendor_id       : [0][0][0][0]
        encoder         : Lavc60.31.102 h264_qsv
  Stream #1:1[0x2](und): Audio: aac (HE-AACv2) (mp4a / 0x6134706D), 48000 Hz, stereo, fltp, 144 kb/s (default)
      Metadata:
        handler_name    : SoundHandler
        vendor_id       : [0][0][0][0]
Stream mapping:
  Stream #0:0 (hevc) -> settb:default
  Stream #1:0 (h264) -> settb:default
  psnr:default -> Stream #0:0 (wrapped_avframe)
  Stream #0:1 -> #0:1 (aac (native) -> pcm_s16le (native))
Output #0, null, to 'pipe:':
  Metadata:
    COMPATIBLE_BRANDS: isomiso2avc1mp41
    MAJOR_BRAND     : isom
    MINOR_VERSION   : 512
    encoder         : Lavf61.7.100
  Stream #0:0: Video: wrapped_avframe, yuv420p10le(tv, bt709, progressive), 1920x1080 [SAR 1:1 DAR 16:9], q=2-31, 200 kb/s, 23.98 fps, 23.98 tbn
      Metadata:
        encoder         : Lavc61.19.100 wrapped_avframe
  Stream #0:1: Audio: pcm_s16le, 48000 Hz, stereo, s16, 1536 kb/s (default)
      Metadata:
        HANDLER_NAME    : SoundHandler
        VENDOR_ID       : [0][0][0][0]
        _STATISTICS_TAGS: BPS DURATION NUMBER_OF_FRAMES NUMBER_OF_BYTES
        BPS             : 193429
        DURATION        : 00:23:48.224000000
        NUMBER_OF_FRAMES: 66949
        NUMBER_OF_BYTES : 34532592
        _STATISTICS_WRITING_APP: mkvpropedit v66.0.0 ('Josie') 64-bit
        _STATISTICS_WRITING_DATE_UTC: 2025-06-02 07:29:08
        encoder         : Lavc61.19.100 pcm_s16le
frame=  181 fps=0.0 q=-0.0 size=N/A time=00:00:07.54 bitrate=N/A speed=14.6x    frame=  421 fps=410 q=-0.0 size=N/A time=00:00:17.55 bitrate=N/A speed=17.1x    frame=  690 fps=445 q=-0.0 size=N/A time=00:00:28.77 bitrate=N/A speed=18.6x    frame=  910 fps=439 q=-0.0 size=N/A time=00:00:37.95 bitrate=N/A speed=18.3x    frame= 1145 fps=441 q=-0.0 size=N/A time=00:00:47.75 bitrate=N/A speed=18.4x    frame= 1344 fps=433 q=-0.0 size=N/A time=00:00:56.05 bitrate=N/A speed=18.1x    frame= 1588 fps=438 q=-0.0 size=N/A time=00:01:06.23 bitrate=N/A speed=18.3x    frame= 1834 fps=444 q=-0.0 size=N/A time=00:01:16.49 bitrate=N/A speed=18.5x    frame= 2054 fps=441 q=-0.0 size=N/A time=00:01:25.66 bitrate=N/A speed=18.4x    frame= 2280 fps=442 q=-0.0 size=N/A time=00:01:35.09 bitrate=N/A speed=18.4x    frame= 2562 fps=450 q=-0.0 size=N/A time=00:01:46.85 bitrate=N/A speed=18.8x    frame= 2815 fps=454 q=-0.0 size=N/A time=00:01:57.40 bitrate=N/A speed=  19x    frame= 2998 fps=447 q=-0.0 size=N/A time=00:02:05.04 bitrate=N/A speed=18.6x    frame= 3180 fps=440 q=-0.0 size=N/A time=00:02:12.63 bitrate=N/A speed=18.3x    frame= 3347 fps=432 q=-0.0 size=N/A time=00:02:19.59 bitrate=N/A speed=  18x    frame= 3487 fps=422 q=-0.0 size=N/A time=00:02:25.43 bitrate=N/A speed=17.6x    frame= 3645 fps=415 q=-0.0 size=N/A time=00:02:32.02 bitrate=N/A speed=17.3x    frame= 3860 fps=415 q=-0.0 size=N/A time=00:02:40.99 bitrate=N/A speed=17.3x    frame= 4012 fps=409 q=-0.0 size=N/A time=00:02:47.33 bitrate=N/A speed=17.1x    frame= 4200 fps=407 q=-0.0 size=N/A time=00:02:55.17 bitrate=N/A speed=  17x    frame= 4399 fps=406 q=-0.0 size=N/A time=00:03:03.47 bitrate=N/A speed=16.9x    frame= 4610 fps=406 q=-0.0 size=N/A time=00:03:12.27 bitrate=N/A speed=16.9x    frame= 4847 fps=408 q=-0.0 size=N/A time=00:03:22.16 bitrate=N/A speed=  17x    frame= 5051 fps=408 q=-0.0 size=N/A time=00:03:30.66 bitrate=N/A speed=  17x    frame= 5292 fps=410 q=-0.0 size=N/A time=00:03:40.72 bitrate=N/A speed=17.1x    frame= 5504 fps=410 q=-0.0 size=N/A time=00:03:49.56 bitrate=N/A speed=17.1x    frame= 5706 fps=409 q=-0.0 size=N/A time=00:03:57.98 bitrate=N/A speed=17.1x    frame= 5928 fps=410 q=-0.0 size=N/A time=00:04:07.24 bitrate=N/A speed=17.1x    frame= 6145 fps=411 q=-0.0 size=N/A time=00:04:16.29 bitrate=N/A speed=17.1x    frame= 6362 fps=411 q=-0.0 size=N/A time=00:04:25.34 bitrate=N/A speed=17.1x    frame= 6580 fps=411 q=-0.0 size=N/A time=00:04:34.44 bitrate=N/A speed=17.1x    frame= 6813 fps=413 q=-0.0 size=N/A time=00:04:44.15 bitrate=N/A speed=17.2x    frame= 7080 fps=416 q=-0.0 size=N/A time=00:04:55.29 bitrate=N/A speed=17.3x    frame= 7320 fps=417 q=-0.0 size=N/A time=00:05:05.30 bitrate=N/A speed=17.4x    frame= 7563 fps=419 q=-0.0 size=N/A time=00:05:15.44 bitrate=N/A speed=17.5x    frame= 7805 fps=420 q=-0.0 size=N/A time=00:05:25.53 bitrate=N/A speed=17.5x    frame= 8071 fps=423 q=-0.0 size=N/A time=00:05:36.62 bitrate=N/A speed=17.6x    frame= 8295 fps=423 q=-0.0 size=N/A time=00:05:45.97 bitrate=N/A speed=17.6x    frame= 8543 fps=424 q=-0.0 size=N/A time=00:05:56.31 bitrate=N/A speed=17.7x    frame= 8780 fps=425 q=-0.0 size=N/A time=00:06:06.19 bitrate=N/A speed=17.7x    frame= 9038 fps=427 q=-0.0 size=N/A time=00:06:16.95 bitrate=N/A speed=17.8x    frame= 9292 fps=429 q=-0.0 size=N/A time=00:06:27.55 bitrate=N/A speed=17.9x    frame= 9551 fps=430 q=-0.0 size=N/A time=00:06:38.35 bitrate=N/A speed=  18x    frame= 9789 fps=431 q=-0.0 size=N/A time=00:06:48.28 bitrate=N/A speed=  18x    frame=10036 fps=432 q=-0.0 size=N/A time=00:06:58.58 bitrate=N/A speed=  18x    frame=10289 fps=433 q=-0.0 size=N/A time=00:07:09.13 bitrate=N/A speed=18.1x    frame=10547 fps=435 q=-0.0 size=N/A time=00:07:19.89 bitrate=N/A speed=18.1x    frame=10773 fps=435 q=-0.0 size=N/A time=00:07:29.32 bitrate=N/A speed=18.1x    frame=10978 fps=434 q=-0.0 size=N/A time=00:07:37.87 bitrate=N/A speed=18.1x    frame=11205 fps=434 q=-0.0 size=N/A time=00:07:47.34 bitrate=N/A speed=18.1x    frame=11444 fps=435 q=-0.0 size=N/A time=00:07:57.31 bitrate=N/A speed=18.1x    frame=11672 fps=435 q=-0.0 size=N/A time=00:08:06.81 bitrate=N/A speed=18.2x    frame=11891 fps=435 q=-0.0 size=N/A time=00:08:15.95 bitrate=N/A speed=18.1x    frame=12156 fps=436 q=-0.0 size=N/A time=00:08:27.00 bitrate=N/A speed=18.2x    frame=12395 fps=437 q=-0.0 size=N/A time=00:08:36.97 bitrate=N/A speed=18.2x    frame=12633 fps=437 q=-0.0 size=N/A time=00:08:46.90 bitrate=N/A speed=18.2x    frame=12875 fps=438 q=-0.0 size=N/A time=00:08:56.99 bitrate=N/A speed=18.3x    frame=13124 fps=439 q=-0.0 size=N/A time=00:09:07.38 bitrate=N/A speed=18.3x    frame=13359 fps=439 q=-0.0 size=N/A time=00:09:17.18 bitrate=N/A speed=18.3x    frame=13611 fps=440 q=-0.0 size=N/A time=00:09:27.73 bitrate=N/A speed=18.3x    frame=13837 fps=440 q=-0.0 size=N/A time=00:09:37.11 bitrate=N/A speed=18.3x    frame=14088 fps=441 q=-0.0 size=N/A time=00:09:47.58 bitrate=N/A speed=18.4x    frame=14348 fps=441 q=-0.0 size=N/A time=00:09:58.43 bitrate=N/A speed=18.4x    frame=14609 fps=442 q=-0.0 size=N/A time=00:10:09.31 bitrate=N/A speed=18.4x    frame=14842 fps=443 q=-0.0 size=N/A time=00:10:19.03 bitrate=N/A speed=18.5x    frame=15100 fps=443 q=-0.0 size=N/A time=00:10:29.79 bitrate=N/A speed=18.5x    frame=15342 fps=444 q=-0.0 size=N/A time=00:10:39.88 bitrate=N/A speed=18.5x    frame=15613 fps=445 q=-0.0 size=N/A time=00:10:51.19 bitrate=N/A speed=18.6x    frame=15850 fps=445 q=-0.0 size=N/A time=00:11:01.07 bitrate=N/A speed=18.6x    frame=16052 fps=444 q=-0.0 size=N/A time=00:11:09.50 bitrate=N/A speed=18.5x    frame=16269 fps=444 q=-0.0 size=N/A time=00:11:18.55 bitrate=N/A speed=18.5x    frame=16498 fps=444 q=-0.0 size=N/A time=00:11:28.10 bitrate=N/A speed=18.5x    frame=16754 fps=445 q=-0.0 size=N/A time=00:11:38.78 bitrate=N/A speed=18.6x    frame=16913 fps=443 q=-0.0 size=N/A time=00:11:45.41 bitrate=N/A speed=18.5x    frame=17176 fps=444 q=-0.0 size=N/A time=00:11:56.38 bitrate=N/A speed=18.5x    frame=17421 fps=444 q=-0.0 size=N/A time=00:12:06.60 bitrate=N/A speed=18.5x    frame=17676 fps=445 q=-0.0 size=N/A time=00:12:17.23 bitrate=N/A speed=18.6x    frame=17904 fps=445 q=-0.0 size=N/A time=00:12:26.74 bitrate=N/A speed=18.6x    frame=18135 fps=445 q=-0.0 size=N/A time=00:12:36.38 bitrate=N/A speed=18.6x    frame=18352 fps=445 q=-0.0 size=N/A time=00:12:45.43 bitrate=N/A speed=18.5x    frame=18590 fps=445 q=-0.0 size=N/A time=00:12:55.35 bitrate=N/A speed=18.6x    frame=18844 fps=445 q=-0.0 size=N/A time=00:13:05.95 bitrate=N/A speed=18.6x    frame=19128 fps=446 q=-0.0 size=N/A time=00:13:17.79 bitrate=N/A speed=18.6x    frame=19404 fps=448 q=-0.0 size=N/A time=00:13:29.30 bitrate=N/A speed=18.7x    frame=19668 fps=448 q=-0.0 size=N/A time=00:13:40.31 bitrate=N/A speed=18.7x    frame=19925 fps=449 q=-0.0 size=N/A time=00:13:51.03 bitrate=N/A speed=18.7x    frame=20195 fps=450 q=-0.0 size=N/A time=00:14:02.34 bitrate=N/A speed=18.8x    frame=20453 fps=450 q=-0.0 size=N/A time=00:14:13.06 bitrate=N/A speed=18.8x    frame=20712 fps=451 q=-0.0 size=N/A time=00:14:23.86 bitrate=N/A speed=18.8x    frame=20955 fps=451 q=-0.0 size=N/A time=00:14:33.99 bitrate=N/A speed=18.8x    frame=21192 fps=451 q=-0.0 size=N/A time=00:14:43.88 bitrate=N/A speed=18.8x    frame=21434 fps=451 q=-0.0 size=N/A time=00:14:53.97 bitrate=N/A speed=18.8x    frame=21679 fps=452 q=-0.0 size=N/A time=00:15:04.19 bitrate=N/A speed=18.8x    frame=21902 fps=451 q=-0.0 size=N/A time=00:15:13.49 bitrate=N/A speed=18.8x    frame=22143 fps=452 q=-0.0 size=N/A time=00:15:23.54 bitrate=N/A speed=18.8x    frame=22403 fps=452 q=-0.0 size=N/A time=00:15:34.39 bitrate=N/A speed=18.9x    frame=22672 fps=453 q=-0.0 size=N/A time=00:15:45.61 bitrate=N/A speed=18.9x    frame=22915 fps=453 q=-0.0 size=N/A time=00:15:55.74 bitrate=N/A speed=18.9x    frame=23167 fps=453 q=-0.0 size=N/A time=00:16:06.25 bitrate=N/A speed=18.9x    frame=23416 fps=454 q=-0.0 size=N/A time=00:16:16.64 bitrate=N/A speed=18.9x    frame=23675 fps=454 q=-0.0 size=N/A time=00:16:27.44 bitrate=N/A speed=18.9x    frame=23956 fps=455 q=-0.0 size=N/A time=00:16:39.16 bitrate=N/A speed=  19x    frame=24228 fps=456 q=-0.0 size=N/A time=00:16:50.50 bitrate=N/A speed=  19x    frame=24496 fps=456 q=-0.0 size=N/A time=00:17:01.68 bitrate=N/A speed=  19x    frame=24738 fps=456 q=-0.0 size=N/A time=00:17:11.78 bitrate=N/A speed=  19x    frame=24956 fps=456 q=-0.0 size=N/A time=00:17:20.87 bitrate=N/A speed=  19x    frame=25180 fps=456 q=-0.0 size=N/A time=00:17:30.21 bitrate=N/A speed=  19x    frame=25426 fps=456 q=-0.0 size=N/A time=00:17:40.47 bitrate=N/A speed=  19x    frame=25689 fps=457 q=-0.0 size=N/A time=00:17:51.44 bitrate=N/A speed=  19x    frame=25960 fps=457 q=-0.0 size=N/A time=00:18:02.74 bitrate=N/A speed=19.1x    frame=26219 fps=458 q=-0.0 size=N/A time=00:18:13.55 bitrate=N/A speed=19.1x    frame=26476 fps=458 q=-0.0 size=N/A time=00:18:24.26 bitrate=N/A speed=19.1x    frame=26754 fps=459 q=-0.0 size=N/A time=00:18:35.86 bitrate=N/A speed=19.1x    frame=27009 fps=459 q=-0.0 size=N/A time=00:18:46.50 bitrate=N/A speed=19.1x    frame=27219 fps=459 q=-0.0 size=N/A time=00:18:55.25 bitrate=N/A speed=19.1x    frame=27460 fps=459 q=-0.0 size=N/A time=00:19:05.31 bitrate=N/A speed=19.1x    frame=27712 fps=459 q=-0.0 size=N/A time=00:19:15.82 bitrate=N/A speed=19.1x    frame=27907 fps=458 q=-0.0 size=N/A time=00:19:23.95 bitrate=N/A speed=19.1x    frame=28127 fps=458 q=-0.0 size=N/A time=00:19:33.13 bitrate=N/A speed=19.1x    frame=28365 fps=458 q=-0.0 size=N/A time=00:19:43.05 bitrate=N/A speed=19.1x    frame=28583 fps=458 q=-0.0 size=N/A time=00:19:52.14 bitrate=N/A speed=19.1x    frame=28812 fps=458 q=-0.0 size=N/A time=00:20:01.70 bitrate=N/A speed=19.1x    frame=29041 fps=458 q=-0.0 size=N/A time=00:20:11.25 bitrate=N/A speed=19.1x    frame=29261 fps=457 q=-0.0 size=N/A time=00:20:20.42 bitrate=N/A speed=19.1x    frame=29508 fps=457 q=-0.0 size=N/A time=00:20:30.72 bitrate=N/A speed=19.1x    frame=29780 fps=458 q=-0.0 size=N/A time=00:20:42.07 bitrate=N/A speed=19.1x    frame=30001 fps=458 q=-0.0 size=N/A time=00:20:51.29 bitrate=N/A speed=19.1x    frame=30219 fps=457 q=-0.0 size=N/A time=00:21:00.38 bitrate=N/A speed=19.1x    frame=30449 fps=457 q=-0.0 size=N/A time=00:21:09.97 bitrate=N/A speed=19.1x    frame=30685 fps=457 q=-0.0 size=N/A time=00:21:19.82 bitrate=N/A speed=19.1x    frame=30883 fps=457 q=-0.0 size=N/A time=00:21:28.07 bitrate=N/A speed=  19x    frame=31064 fps=456 q=-0.0 size=N/A time=00:21:35.62 bitrate=N/A speed=  19x    frame=31277 fps=456 q=-0.0 size=N/A time=00:21:44.51 bitrate=N/A speed=  19x    frame=31494 fps=455 q=-0.0 size=N/A time=00:21:53.56 bitrate=N/A speed=  19x    frame=31703 fps=455 q=-0.0 size=N/A time=00:22:02.27 bitrate=N/A speed=  19x    frame=31939 fps=455 q=-0.0 size=N/A time=00:22:12.12 bitrate=N/A speed=  19x    frame=32156 fps=455 q=-0.0 size=N/A time=00:22:21.17 bitrate=N/A speed=  19x    frame=32397 fps=455 q=-0.0 size=N/A time=00:22:31.22 bitrate=N/A speed=  19x    frame=32649 fps=455 q=-0.0 size=N/A time=00:22:41.73 bitrate=N/A speed=  19x    frame=32864 fps=455 q=-0.0 size=N/A time=00:22:50.70 bitrate=N/A speed=  19x    frame=33083 fps=455 q=-0.0 size=N/A time=00:22:59.83 bitrate=N/A speed=  19x    frame=33349 fps=455 q=-0.0 size=N/A time=00:23:10.93 bitrate=N/A speed=  19x    frame=33582 fps=455 q=-0.0 size=N/A time=00:23:20.64 bitrate=N/A speed=  19x    frame=33824 fps=455 q=-0.0 size=N/A time=00:23:30.74 bitrate=N/A speed=  19x    frame=34073 fps=455 q=-0.0 size=N/A time=00:23:41.12 bitrate=N/A speed=  19x    [Parsed_psnr_10 @ 0000022bf5548e40] PSNR y:47.868761 u:51.166260 v:51.321037 average:48.730955 min:42.263935 max:inf
[out#0/null @ 0000022bf50850c0] video:14697KiB audio:267796KiB subtitle:0KiB other streams:0KiB global headers:0KiB muxing overhead: unknown
frame=34203 fps=456 q=-0.0 Lsize=N/A time=00:23:46.55 bitrate=N/A speed=  19x    
